<svg width="16" height="16" fill="none" xmlns="http://www.w3.org/2000/svg"><path d="M5.608 9H4.363a.375.375 0 0 1-.374-.375v-1.25c0-.206.168-.375.374-.375h1.245c.206 0 .374.169.374.375v1.25A.375.375 0 0 1 5.608 9Zm3.363-.375v-1.25A.375.375 0 0 0 8.597 7H7.352a.375.375 0 0 0-.374.375v1.25c0 .206.168.375.374.375h1.245a.375.375 0 0 0 .374-.375Zm2.989 0v-1.25A.375.375 0 0 0 11.586 7h-1.245a.375.375 0 0 0-.374.375v1.25c0 .206.168.375.374.375h1.245a.375.375 0 0 0 .374-.375Zm-2.99 3v-1.25A.375.375 0 0 0 8.598 10H7.352a.375.375 0 0 0-.374.375v1.25c0 .206.168.375.374.375h1.245a.375.375 0 0 0 .374-.375Zm-2.988 0v-1.25A.375.375 0 0 0 5.608 10H4.363a.375.375 0 0 0-.374.375v1.25c0 .206.168.375.374.375h1.245a.375.375 0 0 0 .374-.375Zm5.978 0v-1.25a.375.375 0 0 0-.374-.375h-1.245a.375.375 0 0 0-.374.375v1.25c0 .206.168.375.374.375h1.245a.375.375 0 0 0 .374-.375ZM14.949 3.5v11c0 .828-.67 1.5-1.495 1.5H2.494A1.498 1.498 0 0 1 1 14.5v-11C1 2.672 1.67 2 2.495 2h1.494V.375c0-.206.168-.375.374-.375h1.245c.206 0 .374.169.374.375V2h3.985V.375c0-.206.168-.375.374-.375h1.245c.206 0 .374.169.374.375V2h1.494c.825 0 1.495.672 1.495 1.5Zm-1.495 10.813V5H2.494v9.313c0 .103.085.187.187.187h10.586a.188.188 0 0 0 .187-.188Z" fill="#000"/></svg>