<svg width="12" height="12" fill="none" xmlns="http://www.w3.org/2000/svg"><path d="M8.775 3.031a4.036 4.036 0 0 0-2.779-1.096 4.07 4.07 0 0 0-3.938 3.07.291.291 0 0 1-.282.22H.39a.29.29 0 0 1-.286-.342 6.002 6.002 0 0 1 10.04-3.221l.865-.864a.58.58 0 0 1 .991.41v3.244c0 .32-.26.58-.58.58H8.175a.58.58 0 0 1-.41-.991l1.01-1.01ZM.581 6.968h3.243a.58.58 0 0 1 .41.991l-1.01 1.01a4.035 4.035 0 0 0 2.78 1.096 4.07 4.07 0 0 0 3.938-3.07.291.291 0 0 1 .282-.22h1.386a.29.29 0 0 1 .286.342 6.002 6.002 0 0 1-10.04 3.221l-.865.864a.58.58 0 0 1-.991-.41V7.548c0-.32.26-.58.58-.58Z" fill="#000"/></svg>