<svg width="14" height="16" fill="none" xmlns="http://www.w3.org/2000/svg"><g clip-path="url(#a)"><path d="m12.279 5.75.704-.706a.376.376 0 0 0 0-.531l-.53-.532a.374.374 0 0 0-.53 0l-.645.647a6.433 6.433 0 0 0-3.547-1.587V1.5h.873a.376.376 0 0 0 .374-.375v-.75A.376.376 0 0 0 8.604 0H5.362a.376.376 0 0 0-.374.375v.75c0 .206.168.375.374.375h.873v1.544A6.493 6.493 0 0 0 .499 9.5c0 3.59 2.902 6.5 6.484 6.5 3.581 0 6.484-2.91 6.484-6.5 0-1.397-.44-2.69-1.188-3.75ZM6.983 14.5a4.992 4.992 0 0 1-4.988-5c0-2.763 2.232-5 4.988-5a4.992 4.992 0 0 1 4.987 5c0 2.762-2.232 5-4.987 5Zm.374-3.5h-.748a.376.376 0 0 1-.374-.375v-4.25c0-.206.168-.375.374-.375h.748c.205 0 .374.169.374.375v4.25a.376.376 0 0 1-.374.375Z" fill="#000"/></g><defs><clipPath id="a"><path fill="#fff" d="M0 0h13.965v16H0z"/></clipPath></defs></svg>